<?xml version="1.0" standalone="no"?><!DOCTYPE svg PUBLIC "-//W3C//DTD SVG 1.1//EN" "http://www.w3.org/Graphics/SVG/1.1/DTD/svg11.dtd"><svg t="1560762564627" class="icon" style="" viewBox="0 0 1024 1024" version="1.1" xmlns="http://www.w3.org/2000/svg" p-id="1604" xmlns:xlink="http://www.w3.org/1999/xlink" width="120" height="120"><defs><style type="text/css"></style></defs><path d="M936.662061 746.093225l0.06396 43.87655c51.359868 15.414356 86.34598 61.209706 86.53786 113.081254 0 65.495025-55.517267 118.517852-123.954451 118.517852-68.437184 0-123.826531-53.086788-123.826531-118.517852 0-52.383228 35.497792-96.707497 84.61906-112.377694v-44.58011c0-48.993349-41.57399-88.904379-92.869898-88.904379h-10.937158c-51.231948 0-92.869898 39.911031-92.869898 88.904379v115.127973c-0.44772 89.863779-76.304262 162.458362-169.493961 162.138563h-10.873197c-93.381578 0-169.43-72.786463-169.43-162.138563v-215.609109h-3.198a32.171872 32.171872 0 0 1-32.107912-32.171873C81.708941 600.968019 42.94919 460.767732 13.847397 294.855531l-6.651839-37.992231C-6.236039 183.053477 2.718359 101.184696 35.785672 62.233065 58.299586 35.497792 91.430859 18.932156 127.12053 16.437716h59.099026A54.238067 54.238067 0 0 1 225.235147 0.3198c29.549513-0.06396 53.662427 22.961635 53.790348 51.423828a51.679668 51.679668 0 0 1-32.171873 47.330389 55.133507 55.133507 0 0 1-57.883786-9.466078h-59.354866a55.197467 55.197467 0 0 0-35.114032 19.699675c-17.588996 21.618475-21.042835 84.42718-11.896557 134.955569l6.779758 38.375991c32.747512 187.402756 66.966104 245.606343 188.937796 257.37498 0-16.757516 13.623477-30.380993 30.380993-30.380993H392.170708c16.373756 0 29.613473 13.239717 29.613473 29.613473C538.639074 523.000798 576.823185 466.524131 608.995058 282.703134l6.779758-38.375991c9.274198-51.295908 0.9594-114.488373-17.333156-135.914968a55.069547 55.069547 0 0 0-34.282552-18.804236h-59.482786a55.133507 55.133507 0 0 1-57.819827 9.530038 51.679668 51.679668 0 0 1-32.171872-47.330389c0-13.687437 5.756399-26.863194 15.798116-36.457192a54.621827 54.621827 0 0 1 37.992231-15.094556c14.710797 0 28.781993 5.884319 38.887671 16.181876h59.035066a131.501729 131.501729 0 0 1 91.462779 45.795349c33.067312 39.015591 46.690789 120.820412 33.259192 194.630235l-6.651838 37.928271c-28.718033 164.121322-71.635183 301.25153-262.619699 318.200926v0.959399a31.660193 31.660193 0 0 1-31.660192 31.660193v215.54515c0 49.057309 41.63795 88.904379 92.869898 88.904379h10.937157c51.231948 0 92.869898-39.847071 92.869899-88.904379v-115.127974c0.44772-89.799819 76.304262-162.330442 169.49396-162.074602h10.873198c93.445538 0 169.43 72.786463 169.43 162.138562z m-37.288671 220.981749a63.959985 63.959985 0 1 0 0-127.91997 63.959985 63.959985 0 0 0 0 127.91997z" fill="#32c787" p-id="1605"></path></svg>