<?xml version="1.0" standalone="no"?><!DOCTYPE svg PUBLIC "-//W3C//DTD SVG 1.1//EN" "http://www.w3.org/Graphics/SVG/1.1/DTD/svg11.dtd"><svg t="1560762497739" class="icon" style="" viewBox="0 0 1024 1024" version="1.1" xmlns="http://www.w3.org/2000/svg" p-id="1415" xmlns:xlink="http://www.w3.org/1999/xlink" width="120" height="120"><defs><style type="text/css"></style></defs><path d="M946.5856 354.33472h-52.1728c-7.6288 0-13.98784 4.90496-17.80736 11.01824l-21.62688 47.73888c-2.54976 7.35232-1.28 15.91296 3.80928 20.82816l36.89472 35.50208-40.72448 39.17824L818.0736 473.088c-5.07904-4.89472-12.71808-7.35232-20.34688-3.67616l-50.8928 19.58912c-7.6288 2.4576-12.71808 9.78944-12.71808 17.14176v57.53856h-58.53184v-57.53856c0-7.35232-5.07904-14.68416-11.43808-17.14176l-49.62304-20.80768c-7.63904-2.4576-15.27808-1.2288-20.36736 3.66592l-38.16448 36.73088-40.71424-39.17824 36.89472-35.50208c5.08928-4.90496 7.63904-13.47584 3.81952-20.82816l-20.35712-48.95744c-2.56-7.35232-10.17856-12.24704-17.8176-12.24704h-53.43232v-55.0912h52.16256c7.63904 0 13.99808-4.90496 17.8176-11.01824l21.62688-47.74912c2.53952-7.34208 1.26976-15.90272-3.81952-20.81792l-36.89472-35.49184 40.71424-39.18848 36.89472 35.51232c5.08928 4.89472 12.72832 7.34208 20.35712 3.66592l50.8928-19.58912c7.63904-2.4576 12.72832-9.78944 12.72832-17.13152v-57.5488h58.5216v57.5488c0 7.34208 5.08928 14.68416 11.44832 17.13152l49.6128 20.81792c7.63904 2.44736 15.26784 1.2288 20.35712-3.67616l38.16448-36.73088 40.72448 39.18848-36.89472 35.49184c-5.08928 4.89472-7.63904 13.47584-3.80928 20.81792l20.35712 48.96768c2.53952 7.35232 10.16832 12.24704 17.80736 12.24704h53.43232v55.0912z" fill="#32c787" p-id="1416"></path><path d="M946.5856 354.6112h-54.10816c-7.0656 0-12.94336 4.63872-16.45568 10.4448l-21.17632 47.63648c-3.52256 6.9632-1.1776 13.9264 3.5328 19.74272l37.632 36.01408-42.3424 40.6528-37.64224-37.1712c-4.7104-4.64896-11.75552-5.80608-18.81088-3.4816l-50.5856 19.74272a17.47968 17.47968 0 0 0-11.74528 16.26112v59.24864h-61.16352v-58.08128c0-6.9632-4.7104-13.9264-10.58816-16.26112l-50.56512-20.89984c-7.0656-2.32448-14.1312-1.1776-18.82112 3.4816l-38.8096 37.1712-42.35264-40.6528 37.65248-36.02432c4.70016-4.63872 7.05536-12.76928 3.52256-18.5856l-19.99872-48.78336c-2.3552-6.9632-9.41056-10.45504-16.46592-10.45504h-54.10816v-58.08128h54.10816c7.0656 0 12.94336-4.64896 16.46592-10.4448l21.16608-47.63648c3.5328-6.9632 1.18784-13.94688-3.52256-19.74272l-37.64224-36.01408 42.35264-40.6528 37.632 37.1712c4.70016 4.64896 11.75552 5.80608 18.82112 3.4816l50.56512-19.74272a17.47968 17.47968 0 0 0 11.76576-16.26112V87.43936h61.16352v58.08128c0 6.9632 4.70016 13.9264 10.57792 16.26112l50.57536 20.89984c7.05536 2.32448 14.10048 1.16736 18.81088-3.4816l38.8096-37.1712 42.3424 40.6528-37.632 36.01408c-4.7104 4.64896-7.0656 12.77952-3.52256 18.59584l19.99872 48.78336c2.3552 6.9632 9.39008 10.4448 16.45568 10.4448h54.09792v58.09152z m18.81088-91.77088H905.4208l-11.75552-26.71616 42.3424-40.6528c3.5328-3.4816 5.888-8.1408 5.888-12.77952 0-4.64896-2.3552-9.28768-5.888-12.77952l-68.20864-65.05472c-7.0656-6.9632-17.64352-6.9632-24.70912 0l-42.33216 40.66304-28.23168-11.61216v-63.8976c0-9.28768-8.23296-17.408-17.63328-17.408H658.432c-9.41056 0-17.64352 8.12032-17.64352 17.408v63.8976l-28.22144 10.4448-42.35264-40.6528c-7.04512-6.9632-17.63328-6.9632-24.68864 0l-68.21888 65.04448c-3.52256 3.49184-5.87776 8.13056-5.87776 12.78976 0 4.63872 2.3552 9.28768 5.87776 12.77952l42.3424 40.6528-11.76576 26.70592H447.8976c-9.41056 0-17.63328 8.13056-17.63328 17.42848v92.928c0 9.28768 8.22272 17.41824 17.63328 17.41824h59.98592l11.776 26.7264-42.35264 40.6528c-3.52256 3.4816-5.87776 8.13056-5.87776 12.76928 0 4.6592 2.3552 9.29792 5.87776 12.77952l68.21888 65.05472c7.05536 6.97344 17.64352 6.97344 24.68864 0l42.35264-40.6528 28.22144 11.6224v63.87712c0 9.28768 8.23296 17.42848 17.64352 17.42848h96.45056c9.40032 0 17.63328-8.1408 17.63328-17.42848v-63.87712l28.23168-11.6224 42.33216 40.6528c7.0656 6.97344 17.64352 6.97344 24.70912 0l68.1984-65.05472c3.54304-3.4816 5.89824-8.12032 5.89824-12.77952 0-4.63872-2.3552-9.27744-5.888-12.76928l-42.3424-40.6528 11.75552-26.7264h59.98592c9.41056 0 17.64352-8.13056 17.64352-17.41824v-92.928c0-9.29792-8.23296-16.26112-17.64352-16.26112z" fill="#32c787" p-id="1417"></path><path d="M706.65216 380.16c-29.40928 0-54.09792-24.39168-54.09792-53.43232s24.68864-53.44256 54.09792-53.44256c29.39904 0 54.09792 24.40192 54.09792 53.44256 0 29.04064-24.69888 53.43232-54.09792 53.43232m0-142.86848c-49.39776 0-89.3952 39.48544-89.3952 88.2688 0 48.7936 39.99744 88.28928 89.3952 88.28928s89.3952-39.49568 89.3952-88.28928c-0.02048-48.78336-40.00768-88.2688-89.3952-88.2688" fill="#32c787" p-id="1418"></path><path d="M946.5856 794.84928c0 19.75296-16.46592 37.1712-37.64224 37.1712H113.88928c-19.99872 0-37.64224-16.26112-37.64224-37.1712V298.8544c0-19.75296 16.45568-37.18144 37.64224-37.18144h272.85504V226.816H113.88928C73.89184 226.816 40.96 259.34848 40.96 298.8544v495.99488c0 39.49568 32.93184 72.01792 72.92928 72.01792h271.67744v81.32608h-79.9744V983.04h411.63776v-34.84672h-78.7968v-81.32608h270.51008c39.97696 0 72.9088-32.52224 72.9088-72.01792V514.89792H946.5856v279.9616z" fill="#32c787" p-id="1419"></path><path d="M195.04128 327.8848v-34.84672h-52.92032c-12.94336 0-29.40928 5.80608-29.40928 31.37536v49.94048h35.28704V327.8848h47.04256zM232.67328 327.8848h35.2768v-34.84672h-35.2768zM287.9488 547.4304l266.98752 199.79264c3.52256 2.32448 7.05536 3.4816 10.58816 3.4816 4.70016 0 10.57792-2.31424 14.11072-5.79584l64.68608-76.66688-27.05408-22.07744-52.92032 63.8976-263.45472-197.4784c-5.87776-4.64896-14.12096-4.64896-21.15584 0L122.14272 621.7728l19.98848 29.04064L287.9488 547.4304z" fill="#32c787" p-id="1420"></path><path d="M422.02112 947.02592h182.30272v-81.3056H422.02112z" fill="#32c787" p-id="1421"></path></svg>