<?xml version="1.0" standalone="no"?><!DOCTYPE svg PUBLIC "-//W3C//DTD SVG 1.1//EN" "http://www.w3.org/Graphics/SVG/1.1/DTD/svg11.dtd"><svg t="1562586749984" class="icon" viewBox="0 0 1024 1024" version="1.1" xmlns="http://www.w3.org/2000/svg" p-id="1188" xmlns:xlink="http://www.w3.org/1999/xlink" width="120" height="120"><defs><style type="text/css"></style></defs><path d="M905 66.2H121c-30.3 0-55 24.7-55 55v560c0 30.3 24.7 55 55 55h784c30.3 0 55-24.7 55-55v-560c0-30.3-24.7-55-55-55z m-9 606H130v-542h766v542zM671.3 863.8h-125V738.5h-70v125.3H352.1c-17.7 0-32 14.3-32 32s14.3 32 32 32h319.3c17.7 0 32-14.3 32-32-0.1-17.6-14.4-32-32.1-32z" p-id="1189" fill="#32c787"></path><path d="M799.4 255.8H427.2c-12.2-28.3-40.3-48.1-73-48.1-32.8 0-60.9 19.8-73 48.1h-57.9c-17.6 0-32 14.4-32 32s14.4 32 32 32h58.4c12.5 27.6 40.2 46.9 72.5 46.9s60-19.2 72.5-46.9h372.7c17.6 0 32-14.4 32-32s-14.4-32-32-32z m0 212.8h-42c-12.3-28-40.3-47.6-72.8-47.6-32.6 0-60.6 19.6-72.8 47.6H223.2c-17.6 0-32 14.4-32 32s14.4 32 32 32h388.6c12.4 27.9 40.2 47.3 72.7 47.3s60.3-19.5 72.7-47.3h42.1c17.6 0 32-14.4 32-32 0.1-17.6-14.3-32-31.9-32z" p-id="1190" fill="#32c787"></path></svg>